# Blender v2.78 (sub 0) OBJ File: 'basicTree.blend'
# www.blender.org
mtllib basicTree.mtl
o Cylinder.002
v 0.000000 -0.368390 -0.368390
v 0.000000 0.368390 -0.368390
v 0.260491 -0.368390 -0.260491
v 0.260491 0.368390 -0.260491
v 0.368390 -0.368390 0.000000
v 0.368390 0.368390 0.000000
v 0.260491 -0.368390 0.260491
v 0.260491 0.368390 0.260491
v -0.000000 -0.368390 0.368390
v -0.000000 0.368390 0.368390
v -0.260491 -0.368390 0.260491
v -0.260491 0.368390 0.260491
v -0.368390 -0.368390 -0.000000
v -0.368390 0.368390 -0.000000
v -0.260491 -0.368390 -0.260491
v -0.260491 0.368390 -0.260491
vn 0.3827 0.0000 -0.9239
vn 0.9239 0.0000 -0.3827
vn 0.9239 0.0000 0.3827
vn 0.3827 0.0000 0.9239
vn -0.3827 0.0000 0.9239
vn -0.9239 0.0000 0.3827
vn 0.0000 1.0000 -0.0000
vn -0.9239 0.0000 -0.3827
vn -0.3827 0.0000 -0.9239
vn 0.0000 -1.0000 0.0000
usemtl Bark
s off
f 1//1 2//1 4//1 3//1
f 3//2 4//2 6//2 5//2
f 5//3 6//3 8//3 7//3
f 7//4 8//4 10//4 9//4
f 9//5 10//5 12//5 11//5
f 11//6 12//6 14//6 13//6
f 4//7 2//7 16//7 14//7 12//7 10//7 8//7 6//7
f 13//8 14//8 16//8 15//8
f 15//9 16//9 2//9 1//9
f 1//10 3//10 5//10 7//10 9//10 11//10 13//10 15//10
o Cylinder.001
v 0.000000 0.334032 -1.000000
v -0.000000 5.675527 -0.088504
v 0.707107 0.334032 -0.707107
v 0.062582 5.675527 -0.062582
v 1.000000 0.334032 0.000000
v 0.088504 5.675527 0.000000
v 0.707107 0.334032 0.707107
v 0.062582 5.675527 0.062582
v -0.000000 0.334032 1.000000
v -0.000000 5.675527 0.088504
v -0.707107 0.334032 0.707107
v -0.062582 5.675527 0.062582
v -1.000000 0.334032 -0.000000
v -0.088504 5.675527 -0.000000
v -0.707107 0.334032 -0.707107
v -0.062582 5.675527 -0.062582
v -0.000000 1.706444 -0.765806
v -0.000000 3.486943 -0.461974
v 0.326665 3.486943 -0.326665
v 0.541506 1.706444 -0.541506
v 0.461974 3.486943 0.000000
v 0.765806 1.706444 0.000000
v 0.326665 3.486943 0.326665
v 0.541506 1.706444 0.541506
v -0.000000 3.486943 0.461974
v -0.000000 1.706444 0.765806
v -0.326665 3.486943 0.326665
v -0.541506 1.706444 0.541506
v -0.461974 3.486943 -0.000000
v -0.765806 1.706444 -0.000000
v -0.326665 3.486943 -0.326665
v -0.541506 1.706444 -0.541506
v 0.000000 3.486943 -0.640433
v 0.452855 3.486942 -0.452855
v 0.640433 3.486942 0.000000
v 0.452855 3.486942 0.452855
v -0.000000 3.486942 0.640433
v -0.452855 3.486942 0.452855
v -0.640433 3.486942 -0.000000
v -0.452855 3.486942 -0.452855
v 0.000000 1.706444 -0.948319
v 0.670562 1.706444 -0.670562
v 0.948319 1.706444 0.000000
v 0.670562 1.706444 0.670562
v -0.000000 1.706444 0.948319
v -0.670563 1.706444 0.670562
v -0.948318 1.706444 -0.000000
v -0.670563 1.706444 -0.670562
vn 0.3727 0.2269 -0.8998
vn 0.8998 0.2269 -0.3727
vn 0.8998 0.2269 0.3727
vn 0.3727 0.2269 0.8998
vn -0.3727 0.2269 0.8998
vn -0.8998 0.2269 0.3727
vn 0.0000 1.0000 0.0000
vn -0.8998 0.2269 -0.3727
vn -0.3727 0.2269 -0.8998
vn 0.0000 -1.0000 0.0000
vn -0.3780 0.1557 -0.9126
vn -0.3711 0.2447 -0.8958
vn -0.9126 0.1557 -0.3780
vn -0.8958 0.2447 -0.3711
vn -0.9126 0.1557 0.3780
vn -0.8958 0.2447 0.3711
vn -0.3780 0.1557 0.9126
vn -0.3711 0.2447 0.8958
vn 0.3780 0.1557 0.9126
vn 0.3711 0.2447 0.8958
vn 0.9126 0.1557 0.3780
vn 0.8958 0.2447 0.3711
vn 0.9126 0.1557 -0.3780
vn 0.8958 0.2447 -0.3711
vn 0.3780 0.1557 -0.9126
vn 0.3711 0.2447 -0.8958
usemtl TreeLeaves
s off
f 49//11 18//11 20//11 50//11
f 50//12 20//12 22//12 51//12
f 51//13 22//13 24//13 52//13
f 52//14 24//14 26//14 53//14
f 53//15 26//15 28//15 54//15
f 54//16 28//16 30//16 55//16
f 20//17 18//17 32//17 30//17 28//17 26//17 24//17 22//17
f 55//18 30//18 32//18 56//18
f 56//19 32//19 18//19 49//19
f 17//20 19//20 21//20 23//20 25//20 27//20 29//20 31//20
f 31//21 48//21 33//21 17//21
f 64//22 47//22 34//22 57//22
f 29//23 46//23 48//23 31//23
f 63//24 45//24 47//24 64//24
f 27//25 44//25 46//25 29//25
f 62//26 43//26 45//26 63//26
f 25//27 42//27 44//27 27//27
f 61//28 41//28 43//28 62//28
f 23//29 40//29 42//29 25//29
f 60//30 39//30 41//30 61//30
f 21//31 38//31 40//31 23//31
f 59//32 37//32 39//32 60//32
f 19//33 36//33 38//33 21//33
f 58//34 35//34 37//34 59//34
f 17//35 33//35 36//35 19//35
f 57//36 34//36 35//36 58//36
f 47//20 56//20 49//20 34//20
f 45//20 55//20 56//20 47//20
f 43//20 54//20 55//20 45//20
f 41//20 53//20 54//20 43//20
f 39//20 52//20 53//20 41//20
f 37//20 51//20 52//20 39//20
f 35//20 50//20 51//20 37//20
f 34//20 49//20 50//20 35//20
f 33//20 57//20 58//20 36//20
f 36//20 58//20 59//20 38//20
f 38//20 59//20 60//20 40//20
f 40//20 60//20 61//20 42//20
f 42//20 61//20 62//20 44//20
f 44//20 62//20 63//20 46//20
f 46//20 63//20 64//20 48//20
f 48//20 64//20 57//20 33//20
