# Blender v2.78 (sub 0) OBJ File: 'CoalHopper.blend'
# www.blender.org
mtllib CoalHopper.mtl
o Cube.004
v 0.272608 0.271206 0.238642
v 0.272608 0.409199 0.238642
v 0.272608 0.271206 -0.304031
v 0.272608 0.409199 -0.304031
v 2.047035 0.271206 0.238642
v 2.047035 0.409199 0.238642
v 2.047035 0.271206 -0.304031
v 2.047035 0.409199 -0.304031
vn -1.0000 0.0000 0.0000
vn 0.0000 0.0000 -1.0000
vn 1.0000 0.0000 0.0000
vn 0.0000 0.0000 1.0000
vn 0.0000 -1.0000 0.0000
vn 0.0000 1.0000 0.0000
usemtl Metal
s off
f 1//1 2//1 4//1 3//1
f 3//2 4//2 8//2 7//2
f 7//3 8//3 6//3 5//3
f 5//4 6//4 2//4 1//4
f 3//5 7//5 5//5 1//5
f 8//6 4//6 2//6 6//6
o Cylinder.018_Cylinder.005
v 0.478475 0.414692 -0.287767
v 0.478475 0.414692 -0.332962
v 0.402313 0.394284 -0.287767
v 0.402313 0.394284 -0.332962
v 0.346558 0.338530 -0.287767
v 0.346558 0.338530 -0.332962
v 0.326151 0.262368 -0.287767
v 0.326151 0.262368 -0.332962
v 0.346558 0.186206 -0.287767
v 0.346558 0.186206 -0.332962
v 0.402313 0.130452 -0.287767
v 0.402313 0.130452 -0.332962
v 0.478475 0.110044 -0.287767
v 0.478474 0.110044 -0.332962
v 0.554636 0.130452 -0.287767
v 0.554636 0.130452 -0.332962
v 0.610391 0.186206 -0.287767
v 0.610391 0.186206 -0.332962
v 0.630799 0.262368 -0.287767
v 0.630798 0.262368 -0.332962
v 0.610391 0.338530 -0.287767
v 0.610391 0.338530 -0.332962
v 0.554637 0.394284 -0.287767
v 0.554637 0.394284 -0.332962
vn -0.2588 0.9659 0.0000
vn -0.7071 0.7071 0.0000
vn -0.9659 0.2588 0.0000
vn -0.9659 -0.2588 0.0000
vn -0.7071 -0.7071 0.0000
vn -0.2588 -0.9659 0.0000
vn 0.2588 -0.9659 0.0000
vn 0.7071 -0.7071 0.0000
vn 0.9659 -0.2588 -0.0000
vn 0.9659 0.2588 -0.0000
vn -0.0000 0.0000 -1.0000
vn 0.7071 0.7071 0.0000
vn 0.2588 0.9659 0.0000
vn 0.0000 0.0000 1.0000
usemtl Metal
s off
f 9//7 10//7 12//7 11//7
f 11//8 12//8 14//8 13//8
f 13//9 14//9 16//9 15//9
f 15//10 16//10 18//10 17//10
f 17//11 18//11 20//11 19//11
f 19//12 20//12 22//12 21//12
f 21//13 22//13 24//13 23//13
f 23//14 24//14 26//14 25//14
f 25//15 26//15 28//15 27//15
f 27//16 28//16 30//16 29//16
f 12//17 10//17 32//17 30//17 28//17 26//17 24//17 22//17 20//17 18//17 16//17 14//17
f 29//18 30//18 32//18 31//18
f 31//19 32//19 10//19 9//19
f 9//20 11//20 13//20 15//20 17//20 19//20 21//20 23//20 25//20 27//20 29//20 31//20
o Cylinder.017_Cylinder.004
v 0.478475 0.414692 0.209990
v 0.478475 0.414692 0.255184
v 0.554637 0.394284 0.209990
v 0.554637 0.394284 0.255184
v 0.610391 0.338530 0.209990
v 0.610391 0.338530 0.255184
v 0.630799 0.262368 0.209990
v 0.630799 0.262368 0.255184
v 0.610391 0.186206 0.209990
v 0.610391 0.186206 0.255184
v 0.554637 0.130452 0.209990
v 0.554637 0.130452 0.255184
v 0.478475 0.110044 0.209990
v 0.478475 0.110044 0.255184
v 0.402313 0.130452 0.209990
v 0.402313 0.130452 0.255184
v 0.346558 0.186206 0.209990
v 0.346558 0.186206 0.255184
v 0.326151 0.262368 0.209990
v 0.326151 0.262368 0.255184
v 0.346558 0.338530 0.209990
v 0.346558 0.338530 0.255184
v 0.402312 0.394284 0.209990
v 0.402312 0.394284 0.255184
vn 0.2588 0.9659 0.0000
vn 0.7071 0.7071 0.0000
vn 0.9659 0.2588 0.0000
vn 0.9659 -0.2588 0.0000
vn 0.7071 -0.7071 0.0000
vn 0.2588 -0.9659 0.0000
vn -0.2588 -0.9659 0.0000
vn -0.7071 -0.7071 -0.0000
vn -0.9659 -0.2588 -0.0000
vn -0.9659 0.2588 0.0000
vn 0.0000 0.0000 1.0000
vn -0.7071 0.7071 0.0000
vn -0.2588 0.9659 0.0000
vn -0.0000 0.0000 -1.0000
usemtl Metal
s off
f 33//21 34//21 36//21 35//21
f 35//22 36//22 38//22 37//22
f 37//23 38//23 40//23 39//23
f 39//24 40//24 42//24 41//24
f 41//25 42//25 44//25 43//25
f 43//26 44//26 46//26 45//26
f 45//27 46//27 48//27 47//27
f 47//28 48//28 50//28 49//28
f 49//29 50//29 52//29 51//29
f 51//30 52//30 54//30 53//30
f 36//31 34//31 56//31 54//31 52//31 50//31 48//31 46//31 44//31 42//31 40//31 38//31
f 53//32 54//32 56//32 55//32
f 55//33 56//33 34//33 33//33
f 33//34 35//34 37//34 39//34 41//34 43//34 45//34 47//34 49//34 51//34 53//34 55//34
o Cylinder.016_Cylinder.003
v 1.766085 0.414692 0.209990
v 1.766085 0.414692 0.255184
v 1.842247 0.394284 0.209990
v 1.842247 0.394284 0.255184
v 1.898002 0.338530 0.209990
v 1.898002 0.338530 0.255184
v 1.918409 0.262368 0.209990
v 1.918409 0.262368 0.255184
v 1.898002 0.186206 0.209990
v 1.898002 0.186206 0.255184
v 1.842247 0.130452 0.209990
v 1.842247 0.130452 0.255184
v 1.766085 0.110044 0.209990
v 1.766085 0.110044 0.255184
v 1.689923 0.130452 0.209990
v 1.689923 0.130452 0.255184
v 1.634169 0.186206 0.209990
v 1.634169 0.186206 0.255184
v 1.613761 0.262368 0.209990
v 1.613761 0.262368 0.255184
v 1.634169 0.338530 0.209990
v 1.634169 0.338530 0.255184
v 1.689923 0.394284 0.209990
v 1.689923 0.394284 0.255184
vn 0.2588 0.9659 0.0000
vn 0.7071 0.7071 0.0000
vn 0.9659 0.2588 0.0000
vn 0.9659 -0.2588 0.0000
vn 0.7071 -0.7071 0.0000
vn 0.2588 -0.9659 0.0000
vn -0.2588 -0.9659 0.0000
vn -0.7071 -0.7071 -0.0000
vn -0.9659 -0.2588 -0.0000
vn -0.9659 0.2588 0.0000
vn 0.0000 0.0000 1.0000
vn -0.7071 0.7071 0.0000
vn -0.2588 0.9659 0.0000
vn -0.0000 0.0000 -1.0000
usemtl Metal
s off
f 57//35 58//35 60//35 59//35
f 59//36 60//36 62//36 61//36
f 61//37 62//37 64//37 63//37
f 63//38 64//38 66//38 65//38
f 65//39 66//39 68//39 67//39
f 67//40 68//40 70//40 69//40
f 69//41 70//41 72//41 71//41
f 71//42 72//42 74//42 73//42
f 73//43 74//43 76//43 75//43
f 75//44 76//44 78//44 77//44
f 60//45 58//45 80//45 78//45 76//45 74//45 72//45 70//45 68//45 66//45 64//45 62//45
f 77//46 78//46 80//46 79//46
f 79//47 80//47 58//47 57//47
f 57//48 59//48 61//48 63//48 65//48 67//48 69//48 71//48 73//48 75//48 77//48 79//48
o Cylinder.004_Cylinder.000
v 1.766085 0.414692 -0.287767
v 1.766085 0.414692 -0.332962
v 1.689923 0.394284 -0.287767
v 1.689923 0.394284 -0.332962
v 1.634169 0.338530 -0.287767
v 1.634169 0.338530 -0.332962
v 1.613761 0.262368 -0.287767
v 1.613761 0.262368 -0.332962
v 1.634169 0.186206 -0.287767
v 1.634169 0.186206 -0.332962
v 1.689923 0.130452 -0.287767
v 1.689923 0.130452 -0.332962
v 1.766085 0.110044 -0.287767
v 1.766085 0.110044 -0.332962
v 1.842247 0.130452 -0.287767
v 1.842247 0.130452 -0.332962
v 1.898002 0.186206 -0.287767
v 1.898002 0.186206 -0.332962
v 1.918409 0.262368 -0.287767
v 1.918409 0.262368 -0.332962
v 1.898002 0.338530 -0.287767
v 1.898002 0.338530 -0.332962
v 1.842247 0.394284 -0.287767
v 1.842247 0.394284 -0.332962
vn -0.2588 0.9659 0.0000
vn -0.7071 0.7071 0.0000
vn -0.9659 0.2588 0.0000
vn -0.9659 -0.2588 0.0000
vn -0.7071 -0.7071 0.0000
vn -0.2588 -0.9659 0.0000
vn 0.2588 -0.9659 0.0000
vn 0.7071 -0.7071 0.0000
vn 0.9659 -0.2588 0.0000
vn 0.9659 0.2588 -0.0000
vn -0.0000 0.0000 -1.0000
vn 0.7071 0.7071 0.0000
vn 0.2588 0.9659 0.0000
vn 0.0000 0.0000 1.0000
usemtl Metal
s off
f 81//49 82//49 84//49 83//49
f 83//50 84//50 86//50 85//50
f 85//51 86//51 88//51 87//51
f 87//52 88//52 90//52 89//52
f 89//53 90//53 92//53 91//53
f 91//54 92//54 94//54 93//54
f 93//55 94//55 96//55 95//55
f 95//56 96//56 98//56 97//56
f 97//57 98//57 100//57 99//57
f 99//58 100//58 102//58 101//58
f 84//59 82//59 104//59 102//59 100//59 98//59 96//59 94//59 92//59 90//59 88//59 86//59
f 101//60 102//60 104//60 103//60
f 103//61 104//61 82//61 81//61
f 81//62 83//62 85//62 87//62 89//62 91//62 93//62 95//62 97//62 99//62 101//62 103//62
o Cube
v 2.187264 0.420673 -0.470478
v 2.187264 0.420673 0.378556
v 0.048354 0.420673 0.378556
v 0.048354 0.420673 -0.470479
v 2.127204 0.476782 -0.410417
v 2.127203 0.476782 0.318496
v 0.108414 0.476782 0.318495
v 0.108414 0.476782 -0.410417
v 2.396826 1.309874 -0.538596
v 2.396824 1.309874 0.446675
v -0.161207 1.309874 -0.538596
v -0.161208 1.309874 0.446674
v 2.338732 1.309874 -0.480502
v 2.338731 1.309874 0.388582
v -0.103114 1.309874 -0.480503
v -0.103114 1.309874 0.388581
vn 0.0000 -1.0000 -0.0000
vn 0.0000 1.0000 -0.0000
vn 0.9733 -0.2294 0.0000
vn -0.0000 -0.0764 0.9971
vn -0.9733 -0.2294 -0.0000
vn 0.0000 -0.0764 -0.9971
vn -0.9692 0.2461 -0.0000
vn -0.0000 0.0838 0.9965
vn 0.0000 0.0838 -0.9965
vn 0.9692 0.2461 0.0000
usemtl Wood
s off
f 105//63 106//63 107//63 108//63
f 109//64 112//64 111//64 110//64
f 105//65 113//65 114//65 106//65
f 106//66 114//66 116//66 107//66
f 107//67 116//67 115//67 108//67
f 113//68 105//68 108//68 115//68
f 117//64 118//64 114//64 113//64
f 119//64 117//64 113//64 115//64
f 118//64 120//64 116//64 114//64
f 120//64 119//64 115//64 116//64
f 109//69 110//69 118//69 117//69
f 112//70 109//70 117//70 119//70
f 110//71 111//71 120//71 118//71
f 111//72 112//72 119//72 120//72
