# Blender v2.78 (sub 0) OBJ File: 'house.blend'
# www.blender.org
mtllib house.mtl
o Cube
v -1.979237 7.669287 -6.267288
v -1.979237 9.494960 -6.267288
v -1.979237 7.669287 -7.126979
v -1.979237 9.494960 -7.126979
v -1.119546 7.669287 -6.267288
v -1.119546 9.494960 -6.267288
v -1.119546 7.669287 -7.126979
v -1.119546 9.494960 -7.126979
v 5.172331 -0.293578 -8.453849
v 5.172331 -0.293578 5.172332
v -5.172333 -0.293578 5.172330
v -5.172330 -0.293578 -8.453851
v 5.172334 4.906696 -8.453846
v 5.172328 4.906696 5.172335
v -5.172334 4.906696 5.172330
v -5.172331 4.906696 -8.453849
v 0.000001 9.711633 -8.453848
v -0.000003 9.711633 5.172333
vt 0.0000 0.0000
vt 1.0000 0.0000
vt 1.0000 1.0000
vt 0.0000 1.0000
vt 0.0000 0.0000
vt 1.0000 0.0000
vt 1.0000 1.0000
vt 0.0000 1.0000
vt 0.0000 0.0000
vt 1.0000 0.0000
vt 1.0000 1.0000
vt 0.0000 1.0000
vt 0.0000 0.0000
vt 1.0000 0.0000
vt 1.0000 1.0000
vt 0.0000 1.0000
vt 1.0000 0.0000
vt 1.0000 1.0000
vt 0.0000 0.0000
vt 0.0000 1.0000
vt 0.0000 0.0000
vt 1.0000 0.0000
vt 1.0000 1.0000
vt 0.0000 1.0000
vt 0.0000 0.0000
vt 1.0000 0.0000
vt 1.0000 1.0000
vt 0.0000 1.0000
vt 1.0000 0.0000
vt 1.0000 1.0000
vt 0.0000 1.0000
vt 0.5000 1.0000
vt 0.9755 0.6545
vt 0.7939 0.0955
vt 0.2061 0.0955
vt 0.0245 0.6545
vt 0.0000 0.0000
vt 1.0000 0.0000
vt 1.0000 1.0000
vt 0.5000 1.0000
vt 0.9755 0.6545
vt 0.7939 0.0955
vt 0.2061 0.0955
vt 0.0245 0.6545
vt 0.0000 0.0000
vt 0.0000 1.0000
vn -1.0000 0.0000 0.0000
vn 0.0000 0.0000 -1.0000
vn 1.0000 0.0000 0.0000
vn 0.0000 0.0000 1.0000
vn 0.0000 -1.0000 0.0000
vn 0.0000 1.0000 0.0000
vn 0.6806 0.7326 0.0000
vn -0.6806 0.7326 -0.0000
usemtl Material
s off
f 1/1/1 2/2/1 4/3/1 3/4/1
f 3/5/2 4/6/2 8/7/2 7/8/2
f 7/9/3 8/10/3 6/11/3 5/12/3
f 5/13/4 6/14/4 2/15/4 1/16/4
f 3/5/5 7/17/5 5/18/5 1/16/5
f 8/19/6 4/6/6 2/15/6 6/20/6
f 9/21/5 10/22/5 11/23/5 12/24/5
f 13/25/7 17/26/7 18/27/7 14/28/7
f 9/21/3 13/29/3 14/30/3 10/31/3
f 10/32/4 14/33/4 18/34/4 15/35/4 11/36/4
f 11/37/1 15/38/1 16/39/1 12/24/1
f 13/40/2 9/41/2 12/42/2 16/43/2 17/44/2
f 18/45/8 17/26/8 16/39/8 15/46/8
