# Blender v2.79 (sub 0) OBJ File: 'lake.blend'
# www.blender.org
mtllib lake.mtl
o Plane
v -39.168060 -0.000002 16.162535
v -26.132671 -0.000003 23.575499
v -33.432556 0.000001 3.183035
v 41.958912 -0.000000 -15.723976
v 12.610655 -0.000000 -19.778465
v -2.287063 -0.000000 -15.501243
v 29.297125 -0.000000 -20.285276
v 15.992287 0.000000 -4.292990
v 50.258923 -0.000000 -24.467033
v 42.745735 -0.000001 -26.983644
v 48.851433 -0.000000 -17.877672
vn 0.0000 1.0000 0.0000
usemtl Water.002
s off
f 1//1 2//1 8//1 4//1 11//1 9//1 10//1 7//1 5//1 6//1 3//1
