# Blender v2.79 (sub 0) OBJ File: 'particle.blend'
# www.blender.org
mtllib particle.mtl
o Circle
v 0.204731 -0.000000 0.000000
v 0.200797 0.039941 0.000000
v 0.189147 0.078347 0.000000
v 0.170228 0.113742 0.000000
v 0.144767 0.144767 0.000000
v 0.113742 0.170228 0.000000
v 0.078347 0.189147 0.000000
v 0.039941 0.200797 0.000000
v 0.000000 0.204731 0.000000
v -0.039941 0.200797 -0.000000
v -0.078347 0.189147 -0.000000
v -0.113742 0.170228 -0.000000
v -0.144767 0.144767 -0.000000
v -0.170228 0.113742 -0.000000
v -0.189147 0.078347 -0.000000
v -0.200797 0.039941 -0.000000
v -0.204731 -0.000000 -0.000000
v -0.200797 -0.039941 -0.000000
v -0.189147 -0.078347 -0.000000
v -0.170228 -0.113743 -0.000000
v -0.144767 -0.144767 -0.000000
v -0.113742 -0.170228 -0.000000
v -0.078347 -0.189147 -0.000000
v -0.039941 -0.200797 -0.000000
v 0.000000 -0.204731 0.000000
v 0.039941 -0.200797 0.000000
v 0.078347 -0.189147 0.000000
v 0.113743 -0.170228 0.000000
v 0.144767 -0.144767 0.000000
v 0.170228 -0.113742 0.000000
v 0.189147 -0.078347 0.000000
v 0.200797 -0.039941 0.000000
vn -0.0000 0.0000 1.0000
usemtl smoke
s off
f 2//1 3//1 4//1 5//1 6//1 7//1 8//1 9//1 10//1 11//1 12//1 13//1 14//1 15//1 16//1 17//1 18//1 19//1 20//1 21//1 22//1 23//1 24//1 25//1 26//1 27//1 28//1 29//1 30//1 31//1 32//1 1//1
