# Blender v2.79 (sub 0) OBJ File: 'particle.blend'
# www.blender.org
mtllib particle.mtl
o Sphere
v 0.000000 0.292361 -0.058154
v 0.000000 0.275399 -0.114074
v 0.000000 0.247852 -0.165609
v 0.000000 0.210781 -0.210781
v 0.000000 0.165609 -0.247852
v 0.000000 0.114074 -0.275399
v 0.000000 0.058154 -0.292361
v 0.000000 0.000000 -0.298089
v 0.000000 -0.058154 -0.292362
v 0.000000 -0.114074 -0.275399
v 0.000000 -0.165609 -0.247852
v 0.000000 -0.210781 -0.210781
v 0.000000 -0.247852 -0.165609
v 0.000000 -0.275399 -0.114074
v 0.000000 -0.292362 -0.058154
v 0.000000 -0.298089 0.000000
v 0.050363 0.292361 -0.029077
v 0.098791 0.275399 -0.057037
v 0.143422 0.247852 -0.082805
v 0.182542 0.210781 -0.105390
v 0.214646 0.165609 -0.123926
v 0.238502 0.114074 -0.137699
v 0.253193 0.058154 -0.146181
v 0.258153 0.000000 -0.149045
v 0.253193 -0.058154 -0.146181
v 0.238502 -0.114074 -0.137699
v 0.214646 -0.165609 -0.123926
v 0.182542 -0.210781 -0.105390
v 0.143422 -0.247852 -0.082805
v 0.098791 -0.275399 -0.057037
v 0.050363 -0.292362 -0.029077
v 0.050363 0.292361 0.029077
v 0.098791 0.275399 0.057037
v 0.143422 0.247852 0.082805
v 0.182542 0.210781 0.105391
v 0.214646 0.165609 0.123926
v 0.238502 0.114074 0.137699
v 0.253193 0.058154 0.146181
v 0.258153 0.000000 0.149045
v 0.253193 -0.058154 0.146181
v 0.238502 -0.114074 0.137699
v 0.214646 -0.165609 0.123926
v 0.182542 -0.210781 0.105391
v 0.143422 -0.247852 0.082805
v 0.098791 -0.275399 0.057037
v 0.050363 -0.292362 0.029077
v -0.000000 0.292361 0.058155
v -0.000000 0.275399 0.114074
v -0.000000 0.247852 0.165610
v -0.000000 0.210781 0.210781
v -0.000000 0.165609 0.247852
v -0.000000 0.114074 0.275399
v -0.000000 0.058154 0.292362
v -0.000000 0.000000 0.298089
v -0.000000 -0.058154 0.292362
v -0.000000 -0.114074 0.275399
v -0.000000 -0.165609 0.247852
v -0.000000 -0.210781 0.210781
v -0.000000 -0.247852 0.165610
v -0.000000 -0.275399 0.114074
v -0.000000 -0.292362 0.058154
v -0.000000 0.298089 0.000000
v -0.050363 0.292361 0.029077
v -0.098791 0.275399 0.057037
v -0.143422 0.247852 0.082805
v -0.182542 0.210781 0.105391
v -0.214646 0.165609 0.123926
v -0.238502 0.114074 0.137699
v -0.253193 0.058154 0.146181
v -0.258153 0.000000 0.149045
v -0.253193 -0.058154 0.146181
v -0.238502 -0.114074 0.137699
v -0.214646 -0.165609 0.123926
v -0.182542 -0.210781 0.105391
v -0.143422 -0.247852 0.082805
v -0.098791 -0.275399 0.057037
v -0.050363 -0.292362 0.029077
v -0.050363 0.292361 -0.029077
v -0.098791 0.275399 -0.057037
v -0.143422 0.247852 -0.082805
v -0.182542 0.210781 -0.105390
v -0.214646 0.165609 -0.123926
v -0.238502 0.114074 -0.137699
v -0.253193 0.058154 -0.146181
v -0.258153 0.000000 -0.149045
v -0.253193 -0.058154 -0.146181
v -0.238502 -0.114074 -0.137699
v -0.214646 -0.165609 -0.123926
v -0.182542 -0.210781 -0.105390
v -0.143422 -0.247852 -0.082805
v -0.098791 -0.275399 -0.057037
v -0.050363 -0.292362 -0.029077
vn 0.3439 0.7259 -0.5957
vn 0.4076 -0.5793 -0.7059
vn 0.4076 0.5793 -0.7059
vn 0.3439 -0.7259 -0.5957
vn 0.4537 0.4201 -0.7859
vn 0.2626 -0.8510 -0.4549
vn 0.4836 0.2541 -0.8376
vn 0.1653 -0.9438 -0.2863
vn 0.4982 0.0850 -0.8629
vn 0.0565 0.9936 -0.0979
vn 0.0565 -0.9936 -0.0979
vn 0.4982 -0.0850 -0.8629
vn 0.1653 0.9438 -0.2863
vn 0.4836 -0.2541 -0.8376
vn 0.2626 0.8510 -0.4549
vn 0.4537 -0.4201 -0.7859
vn 0.9672 -0.2541 0.0000
vn 0.5252 0.8510 0.0000
vn 0.9075 -0.4201 0.0000
vn 0.6878 0.7259 0.0000
vn 0.8151 -0.5793 0.0000
vn 0.8151 0.5793 0.0000
vn 0.6878 -0.7259 0.0000
vn 0.9075 0.4201 0.0000
vn 0.5252 -0.8510 0.0000
vn 0.9672 0.2541 0.0000
vn 0.3306 -0.9438 0.0000
vn 0.9964 0.0850 0.0000
vn 0.1130 0.9936 0.0000
vn 0.1130 -0.9936 0.0000
vn 0.9964 -0.0850 0.0000
vn 0.3306 0.9438 0.0000
vn 0.2626 -0.8510 0.4549
vn 0.4836 0.2541 0.8376
vn 0.1653 -0.9438 0.2863
vn 0.4982 0.0850 0.8629
vn 0.0565 0.9936 0.0979
vn 0.0565 -0.9936 0.0979
vn 0.4982 -0.0850 0.8629
vn 0.1653 0.9438 0.2863
vn 0.4836 -0.2541 0.8376
vn 0.2626 0.8510 0.4549
vn 0.4537 -0.4201 0.7859
vn 0.3439 0.7259 0.5957
vn 0.4076 -0.5793 0.7059
vn 0.4076 0.5793 0.7059
vn 0.3439 -0.7259 0.5957
vn 0.4537 0.4201 0.7859
vn -0.4537 -0.4201 0.7859
vn -0.3439 0.7259 0.5957
vn -0.4076 -0.5793 0.7059
vn -0.4076 0.5793 0.7059
vn -0.3439 -0.7259 0.5957
vn -0.4537 0.4201 0.7859
vn -0.2626 -0.8510 0.4549
vn -0.4836 0.2541 0.8376
vn -0.1653 -0.9438 0.2863
vn -0.4982 0.0850 0.8629
vn -0.0565 0.9936 0.0979
vn -0.0565 -0.9936 0.0979
vn -0.4982 -0.0850 0.8629
vn -0.1653 0.9438 0.2863
vn -0.4836 -0.2541 0.8376
vn -0.2626 0.8510 0.4549
vn -0.3306 -0.9438 0.0000
vn -0.9964 0.0850 -0.0000
vn -0.1130 0.9936 0.0000
vn -0.1130 -0.9936 -0.0000
vn -0.9964 -0.0850 -0.0000
vn -0.3306 0.9438 -0.0000
vn -0.9672 -0.2541 -0.0000
vn -0.5252 0.8510 -0.0000
vn -0.9075 -0.4201 -0.0000
vn -0.6878 0.7259 -0.0000
vn -0.8151 -0.5793 -0.0000
vn -0.8151 0.5793 -0.0000
vn -0.6878 -0.7259 -0.0000
vn -0.9075 0.4201 -0.0000
vn -0.5252 -0.8510 -0.0000
vn -0.9672 0.2541 -0.0000
vn -0.3439 0.7259 -0.5957
vn -0.4076 -0.5793 -0.7059
vn -0.4076 0.5793 -0.7059
vn -0.3439 -0.7259 -0.5957
vn -0.4537 0.4201 -0.7859
vn -0.2626 -0.8510 -0.4549
vn -0.4836 0.2541 -0.8376
vn -0.1653 -0.9438 -0.2863
vn -0.4982 0.0850 -0.8629
vn -0.0565 0.9936 -0.0979
vn -0.0565 -0.9936 -0.0979
vn -0.4982 -0.0850 -0.8629
vn -0.1653 0.9438 -0.2863
vn -0.4836 -0.2541 -0.8376
vn -0.2626 0.8510 -0.4549
vn -0.4537 -0.4201 -0.7859
usemtl None
s off
f 4//1 3//1 19//1 20//1
f 12//2 11//2 27//2 28//2
f 5//3 4//3 20//3 21//3
f 13//4 12//4 28//4 29//4
f 6//5 5//5 21//5 22//5
f 14//6 13//6 29//6 30//6
f 7//7 6//7 22//7 23//7
f 15//8 14//8 30//8 31//8
f 8//9 7//9 23//9 24//9
f 1//10 62//10 17//10
f 16//11 15//11 31//11
f 9//12 8//12 24//12 25//12
f 2//13 1//13 17//13 18//13
f 10//14 9//14 25//14 26//14
f 3//15 2//15 18//15 19//15
f 11//16 10//16 26//16 27//16
f 26//17 25//17 40//17 41//17
f 19//18 18//18 33//18 34//18
f 27//19 26//19 41//19 42//19
f 20//20 19//20 34//20 35//20
f 28//21 27//21 42//21 43//21
f 21//22 20//22 35//22 36//22
f 29//23 28//23 43//23 44//23
f 22//24 21//24 36//24 37//24
f 30//25 29//25 44//25 45//25
f 23//26 22//26 37//26 38//26
f 31//27 30//27 45//27 46//27
f 24//28 23//28 38//28 39//28
f 17//29 62//29 32//29
f 16//30 31//30 46//30
f 25//31 24//31 39//31 40//31
f 18//32 17//32 32//32 33//32
f 45//33 44//33 59//33 60//33
f 38//34 37//34 52//34 53//34
f 46//35 45//35 60//35 61//35
f 39//36 38//36 53//36 54//36
f 32//37 62//37 47//37
f 16//38 46//38 61//38
f 40//39 39//39 54//39 55//39
f 33//40 32//40 47//40 48//40
f 41//41 40//41 55//41 56//41
f 34//42 33//42 48//42 49//42
f 42//43 41//43 56//43 57//43
f 35//44 34//44 49//44 50//44
f 43//45 42//45 57//45 58//45
f 36//46 35//46 50//46 51//46
f 44//47 43//47 58//47 59//47
f 37//48 36//48 51//48 52//48
f 57//49 56//49 72//49 73//49
f 50//50 49//50 65//50 66//50
f 58//51 57//51 73//51 74//51
f 51//52 50//52 66//52 67//52
f 59//53 58//53 74//53 75//53
f 52//54 51//54 67//54 68//54
f 60//55 59//55 75//55 76//55
f 53//56 52//56 68//56 69//56
f 61//57 60//57 76//57 77//57
f 54//58 53//58 69//58 70//58
f 47//59 62//59 63//59
f 16//60 61//60 77//60
f 55//61 54//61 70//61 71//61
f 48//62 47//62 63//62 64//62
f 56//63 55//63 71//63 72//63
f 49//64 48//64 64//64 65//64
f 77//65 76//65 91//65 92//65
f 70//66 69//66 84//66 85//66
f 63//67 62//67 78//67
f 16//68 77//68 92//68
f 71//69 70//69 85//69 86//69
f 64//70 63//70 78//70 79//70
f 72//71 71//71 86//71 87//71
f 65//72 64//72 79//72 80//72
f 73//73 72//73 87//73 88//73
f 66//74 65//74 80//74 81//74
f 74//75 73//75 88//75 89//75
f 67//76 66//76 81//76 82//76
f 75//77 74//77 89//77 90//77
f 68//78 67//78 82//78 83//78
f 76//79 75//79 90//79 91//79
f 69//80 68//80 83//80 84//80
f 81//81 80//81 3//81 4//81
f 89//82 88//82 11//82 12//82
f 82//83 81//83 4//83 5//83
f 90//84 89//84 12//84 13//84
f 83//85 82//85 5//85 6//85
f 91//86 90//86 13//86 14//86
f 84//87 83//87 6//87 7//87
f 92//88 91//88 14//88 15//88
f 85//89 84//89 7//89 8//89
f 78//90 62//90 1//90
f 16//91 92//91 15//91
f 86//92 85//92 8//92 9//92
f 79//93 78//93 1//93 2//93
f 87//94 86//94 9//94 10//94
f 80//95 79//95 2//95 3//95
f 88//96 87//96 10//96 11//96
