# Blender v2.78 (sub 0) OBJ File: ''
# www.blender.org
mtllib smoke2.mtl
o Icosphere_Icosphere.001
v 0.941627 0.598428 0.079828
v 1.000900 0.902296 0.480913
v 0.789694 0.902295 0.328769
v 0.869126 0.902295 0.080885
v 1.129424 0.902295 0.079828
v 1.210866 0.902295 0.327060
v 1.021956 1.019046 0.191922
v 0.978049 0.525586 0.327060
v 0.999105 0.642337 0.480913
v 1.210311 0.642337 0.328769
v 1.103955 0.534675 0.259491
v 0.869542 0.561226 0.259491
v 0.789139 0.642337 0.327060
v 0.829228 0.641854 0.135416
v 1.130879 0.642337 0.080885
v 1.236008 0.772316 0.336173
v 1.236008 0.772316 0.182809
v 1.000003 0.772316 0.507642
v 1.145862 0.772316 0.460249
v 0.763997 0.772316 0.336173
v 0.854143 0.772316 0.460249
v 0.854143 0.772316 0.058733
v 0.763997 0.772316 0.182809
v 1.145862 0.772316 0.058733
v 1.000003 0.772316 0.011340
v 1.040316 0.983407 0.383565
v 1.130463 0.983406 0.259491
v 0.896050 1.009957 0.259491
vn -0.1523 -0.9539 -0.2586
vn -0.0764 -0.9594 -0.2714
vn -0.5212 -0.3563 -0.7755
vn 0.7943 -0.1899 0.5771
vn -0.3034 -0.1899 0.9337
vn -0.9818 -0.1899 0.0000
vn -0.2983 -0.2614 -0.9180
vn 0.7943 -0.1899 -0.5771
vn 0.4886 0.5628 0.6667
vn -0.3933 0.7398 0.5459
vn -0.7639 0.5971 -0.2448
vn -0.0029 0.6912 -0.7227
vn 0.7851 0.5628 -0.2586
vn 0.4865 0.7952 -0.3618
vn -0.3057 0.8351 -0.4573
vn 0.0258 0.9833 0.1804
vn -0.3114 0.7883 0.5307
vn 0.2178 0.9631 0.1582
vn 0.4953 0.7907 0.3598
vn 0.8389 0.4689 -0.2763
vn 0.7937 0.1940 -0.5766
vn -0.0036 0.4689 -0.8832
vn -0.3031 0.1940 -0.9330
vn -0.8411 0.4689 -0.2695
vn -0.9810 0.1940 0.0000
vn -0.5162 0.4689 0.7166
vn -0.3031 0.1939 0.9330
vn 0.5220 0.4689 0.7124
vn 0.7937 0.1939 0.5766
vn 0.3034 0.1899 -0.9337
vn 0.3031 -0.1940 -0.9330
vn 0.0962 -0.3925 -0.9147
vn -0.7943 0.1899 -0.5771
vn -0.7947 -0.1876 -0.5773
vn -0.9041 -0.3837 -0.1882
vn -0.7943 0.1899 0.5771
vn -0.7937 -0.1939 0.5766
vn -0.5220 -0.4689 0.7124
vn 0.3034 0.1899 0.9337
vn 0.3031 -0.1939 0.9330
vn 0.5162 -0.4689 0.7166
vn 0.9818 0.1899 0.0000
vn 0.9810 -0.1940 0.0000
vn 0.8411 -0.4689 -0.2695
vn 0.2004 -0.8521 -0.4834
vn -0.4857 -0.7966 -0.3598
vn -0.7640 -0.6255 -0.1582
vn -0.4889 -0.7910 0.3678
vn -0.4272 -0.6912 0.5829
vn 0.7639 -0.5971 -0.2448
vn 0.3439 -0.7701 0.5373
vn 0.3933 -0.7398 0.5459
usemtl None
s off
f 8//1 12//1 1//1
f 8//2 1//2 11//2
f 1//3 14//3 22//3
f 10//4 16//4 19//4
f 9//5 18//5 21//5
f 13//6 20//6 23//6
f 1//7 22//7 25//7
f 15//8 24//8 17//8
f 2//9 6//9 26//9
f 3//10 2//10 28//10
f 4//11 3//11 28//11
f 5//12 4//12 7//12
f 6//13 5//13 27//13
f 27//14 5//14 7//14
f 7//15 4//15 28//15
f 28//16 26//16 7//16
f 28//17 2//17 26//17
f 26//18 27//18 7//18
f 26//19 6//19 27//19
f 17//20 5//20 6//20
f 17//21 24//21 5//21
f 25//22 4//22 5//22
f 25//23 22//23 4//23
f 23//24 3//24 4//24
f 23//25 20//25 3//25
f 21//26 2//26 3//26
f 21//27 18//27 2//27
f 19//28 6//28 2//28
f 19//29 16//29 6//29
f 24//30 25//30 5//30
f 24//31 15//31 25//31
f 15//32 1//32 25//32
f 22//33 23//33 4//33
f 22//34 14//34 23//34
f 14//35 13//35 23//35
f 20//36 21//36 3//36
f 20//37 13//37 21//37
f 13//38 9//38 21//38
f 18//39 19//39 2//39
f 18//40 9//40 19//40
f 9//41 10//41 19//41
f 16//42 17//42 6//42
f 16//43 10//43 17//43
f 10//44 15//44 17//44
f 11//45 1//45 15//45
f 1//46 12//46 14//46
f 12//47 13//47 14//47
f 12//48 8//48 13//48
f 8//49 9//49 13//49
f 10//50 11//50 15//50
f 8//51 11//51 9//51
f 11//52 10//52 9//52
